<svg width="18" height="36" xmlns="http://www.w3.org/2000/svg"><path d="M17.4 12.823c-.017.222-.022.363-.03.505l-.122 2.519-.118 2.492c-.005.11-.012.222-.019.339h-6.244v16.329c0 .033-6.447.102-6.447.102V18.745l-.078-.07H.076c-.025 0-.05.003-.076.004v-6.007l4.364.001c.017 0 .035-.003.057-.005v-5.03c.001-.704.08-1.4.261-2.082.554-2.091 1.799-3.639 3.77-4.605 1.193-.584 2.47-.843 3.792-.925.152-.01.305-.017.458-.026h1.004c.032.003.064.007.097.008.478.017.956.026 1.434.052.535.03 1.07.076 1.605.118.175.014.349.037.528.057l-.144 5.605h-.094l-3.791-.017a4.411 4.411 0 0 0-1.092.115c-.67.166-1.099.57-1.263 1.237-.096.39-.117.786-.118 1.184-.002 1.412 0 2.825 0 4.237l.1.077h6.335l.098-.001v.15z" fill="#FFF" fill-rule="evenodd"/></svg>