<svg width="33" height="34" xmlns="http://www.w3.org/2000/svg"><g fill="#FFF" fill-rule="evenodd"><path d="M16.305 29.941l.001-.052c.597 0 1.193.016 1.789-.003 2.024-.064 4.054-.062 6.07-.232 2.74-.23 4.645-1.911 5.161-4.605.276-1.44.32-2.935.347-4.408.051-2.753.035-5.508.005-8.262a41.538 41.538 0 0 0-.203-3.71c-.277-2.754-1.929-4.667-4.643-5.177-1.452-.273-2.959-.312-4.444-.34-2.717-.051-5.437-.045-8.155-.002-1.402.022-2.82.068-4.2.286-2.454.388-4.081 1.818-4.678 4.269-.2.826-.303 1.693-.323 2.544-.064 2.729-.102 5.459-.085 8.189.013 1.964.087 3.93.219 5.89a5.71 5.71 0 0 0 1.244 3.22c1.207 1.515 2.87 2.093 4.712 2.185 2.392.12 4.789.143 7.183.208m16.37-13.42c-.04 2.204-.06 4.409-.123 6.612-.054 1.903-.398 3.747-1.412 5.399-1.328 2.163-3.28 3.485-5.761 3.906-1.484.25-3.007.34-4.514.363-3.23.05-6.461.03-9.692-.004-1.713-.018-3.434-.075-5.081-.646-3.159-1.095-5.02-3.329-5.725-6.562C.042 24.1.025 22.583.015 21.072c-.021-3.243-.022-6.486.013-9.728.018-1.701.076-3.41.64-5.046 1.097-3.172 3.323-5.1 6.59-5.719C8.722.302 10.24.236 11.735.213c3.242-.05 6.485-.03 9.727.004 1.714.018 3.434.076 5.081.647 3.159 1.094 5.077 3.317 5.7 6.565.283 1.475.313 3.005.372 4.513.06 1.524.013 3.052.013 4.577l.046.001"/><path d="M16.31 11.068c-2.986.008-5.438 2.466-5.432 5.447.006 2.982 2.47 5.439 5.447 5.432 2.984-.007 5.438-2.468 5.432-5.448-.006-2.983-2.47-5.44-5.447-5.431m.016 13.82c-4.674.002-8.39-3.723-8.39-8.408.001-4.654 3.742-8.355 8.444-8.353 4.618.001 8.32 3.76 8.318 8.443-.001 4.591-3.752 8.318-8.372 8.319M26.987 7.84a1.962 1.962 0 0 1-1.95 1.928c-1.086 0-1.99-.906-1.98-1.984a1.964 1.964 0 0 1 2.003-1.947c1.107.009 1.941.875 1.927 2.004z"/></g></svg>