<svg width="32" height="26" fill="none" xmlns="http://www.w3.org/2000/svg"><path d="M25.856.829a59.405 59.405 0 00-19.776 0C2.336 1.625 0 4.079 0 7.28v11.375c0 3.25 2.336 5.671 6.144 6.5 3.257.557 6.553.84 9.856.845 3.313 0 6.62-.278 9.888-.829 3.712-.715 6.112-3.25 6.112-6.5V7.296c0-3.234-2.4-5.769-6.144-6.467zm-4.64 12.902l-8 4.875a.758.758 0 01-.416.114.9.9 0 01-.4-.098.84.84 0 01-.4-.747v-9.75a.855.855 0 01.4-.715.853.853 0 01.816 0l8 4.875a.824.824 0 01.377.699.838.838 0 01-.377.698v.05z" fill="#fff"/></svg>